Coordinates
version=1
nRows=14
nColumns=24
inDegrees=yes

Units are S.I. units (second, meters, Newtons, ...)
Angles are in degrees.

endheader
time	pelvis_tilt	pelvis_list	pelvis_rotation	pelvis_tx	pelvis_ty	pelvis_tz	hip_flexion_r	hip_adduction_r	hip_rotation_r	knee_angle_r	ankle_angle_r	subtalar_angle_r	mtp_angle_r	hip_flexion_l	hip_adduction_l	hip_rotation_l	knee_angle_l	ankle_angle_l	subtalar_angle_l	mtp_angle_l	lumbar_extension	lumbar_bending	lumbar_rotation
      1.04583333	      1.43705034	     -4.91075234	     -2.31114706	     -0.16601992	      1.05569881	      0.36013721	    -16.31061402	      9.28656740	      0.56153850	     -2.61899382	      5.39978916	    -11.28250550	      4.26579692	     18.36844972	     -2.78421023	     -1.12471257	      3.09616840	     -0.74620844	     -6.23850218	      4.19788072	      1.21885490	      9.28166463	      1.37443501
      1.05000000	      1.37520625	     -4.92977772	     -2.29623621	     -0.16040350	      1.05499666	      0.35980490	    -16.37270661	      9.27892294	      0.59499260	     -3.02329185	      5.39383053	    -11.32117638	      4.26515252	     18.28805024	     -2.72887786	     -1.10430158	      3.39048521	     -0.77233210	     -6.14132684	      4.19172810	      1.25396851	      9.30901425	      1.36460018
      1.05416667	      1.33872487	     -4.91056482	     -2.25789129	     -0.15458452	      1.05436215	      0.35960901	    -16.48661883	      9.25002418	      0.70415313	     -3.39069945	      5.52750848	    -11.44029444	      4.26406933	     18.18671390	     -2.63742219	     -1.25705529	      3.62830623	     -1.13340605	     -5.76105237	      4.15856976	      1.38661698	      9.29017438	      1.35193754
      1.05833333	      1.30182792	     -4.93333489	     -2.26879370	     -0.14897191	      1.05378132	      0.35947377	    -16.54597824	      9.25384540	      0.82669538	     -3.85956869	      5.58021279	    -11.56048814	      4.26281138	     18.11200181	     -2.60998619	     -1.45378515	      3.73874772	     -1.39553636	     -5.41521361	      4.12553421	      1.43832520	      9.22491347	      1.32999028
      1.06250000	      1.27038707	     -4.94099137	     -2.25252041	     -0.14329235	      1.05322506	      0.35923901	    -16.59719804	      9.24181755	      0.88047071	     -4.34838533	      5.56376141	    -11.60049884	      4.26279982	     18.01520579	     -2.55710696	     -1.42500473	      3.80243448	     -1.46141241	     -5.33554246	      4.12176987	      1.49654005	      9.20621784	      1.32859750
      1.06666667	      1.24888592	     -4.93819220	     -2.23697030	     -0.13759266	      1.05272788	      0.35903905	    -16.64067972	      9.21960827	      0.92856892	     -4.87584108	      5.56233341	    -11.65239842	      4.26326496	     17.91397035	     -2.49911764	     -1.40822614	      3.79609251	     -1.61812361	     -5.24282704	      4.11772618	      1.56926335	      9.16370581	      1.32968035
      1.07083333	      1.19061495	     -4.89171921	     -2.20535507	     -0.13168633	      1.05222586	      0.35889326	    -16.65221529	      9.16109354	      0.99187991	     -5.40143984	      5.62985593	    -11.76990133	      4.26728853	     17.86175551	     -2.39345208	     -1.55880955	      3.73245532	     -2.22635812	     -5.04230655	      4.10556330	      1.66525724	      9.05681994	      1.31763476
      1.07500000	      1.18141083	     -4.88219005	     -2.18747552	     -0.12595648	      1.05182506	      0.35871502	    -16.67587779	      9.13136932	      1.05027165	     -5.99017206	      5.59291229	    -11.79932962	      4.26894212	     17.75721373	     -2.33813201	     -1.52122168	      3.59491638	     -2.34738622	     -5.00162037	      4.10557599	      1.73642603	      9.00226326	      1.31950789
      1.07916667	      1.12098347	     -4.82798883	     -2.16483596	     -0.12004472	      1.05141130	      0.35854887	    -16.63292798	      9.05773746	      1.03670320	     -6.60980078	      5.56198036	    -11.84046409	      4.27874259	     17.70815078	     -2.23439525	     -1.59506319	      3.42640773	     -2.91637772	     -4.96934780	      4.10723162	      1.83540039	      8.87101643	      1.30879272
      1.08333333	      1.12977264	     -4.80115037	     -2.14790336	     -0.11426766	      1.05113311	      0.35838173	    -16.63742844	      9.00473196	      1.07457631	     -7.27200787	      5.50832069	    -11.85411573	      4.28164374	     17.58336604	     -2.17187067	     -1.52343940	      3.20072804	     -3.03923023	     -4.95547899	      4.10970020	      1.91019741	      8.80732187	      1.31308893
      1.08750000	      1.06743290	     -4.71294466	     -2.12015141	     -0.10825331	      1.05081947	      0.35812292	    -16.54039411	      8.88349538	      0.90097913	     -7.98645498	      5.40252473	    -11.80635610	      4.29756947	     17.52712385	     -2.03193336	     -1.53529720	      2.97041133	     -3.64752226	     -5.04061160	      4.11880538	      1.94674500	      8.64514295	      1.30422775
      1.09166667	      1.10699147	     -4.67881437	     -2.09003566	     -0.10248599	      1.05067431	      0.35796581	    -16.53522465	      8.82268735	      0.91894333	     -8.72208415	      5.32765589	    -11.78898234	      4.30319956	     17.37831227	     -1.97126987	     -1.44746898	      2.66883521	     -3.79749065	     -5.06168415	      4.12336158	      2.04929035	      8.56171396	      1.31202268
      1.09583333	      1.04589573	     -4.56825987	     -1.97478239	     -0.09639688	      1.05042014	      0.35752081	    -16.39751642	      8.68836749	      0.57358055	     -9.49451550	      5.11678650	    -11.46409044	      4.34967846	     17.33728767	     -1.78404331	     -1.36117338	      2.37750101	     -4.65921991	     -5.46516291	      4.15456280	      2.21221372	      8.35342213	      1.28900582
      1.10000000	      1.06976223	     -4.49362452	     -1.99671279	     -0.09054297	      1.05040553	      0.35735382	    -16.32112625	      8.55470968	      0.54279121	    -10.34090070	      5.03574769	    -11.45129607	      4.35767720	     17.17455445	     -1.70193003	     -1.23415707	      2.07210752	     -4.76682793	     -5.49286930	      4.16173826	      2.25395919	      8.26534784	      1.28789470
